<?xml version="1.0" encoding="UTF-8" standalone="no"?>
<!DOCTYPE svg PUBLIC "-//W3C//DTD SVG 1.1//EN"
 "http://www.w3.org/Graphics/SVG/1.1/DTD/svg11.dtd">
<!-- Generated by graphviz version 2.47.0 (20210316.0004)
 -->
<!-- Title: dependencies Pages: 1 -->
<svg width="1317pt" height="352pt"
 viewBox="0.00 0.00 1317.00 352.00" xmlns="http://www.w3.org/2000/svg" xmlns:xlink="http://www.w3.org/1999/xlink">
<g id="graph0" class="graph" transform="scale(1 1) rotate(0) translate(4 348)">
<title>dependencies</title>
<polygon fill="white" stroke="transparent" points="-4,4 -4,-348 1313,-348 1313,4 -4,4"/>
<text text-anchor="start" x="633.51" y="-42.4" font-family="Times-12" font-weight="bold" font-size="14.00">Legend</text>
<polygon fill="#ffffb3" stroke="transparent" points="420.5,-10 420.5,-30 440.5,-30 440.5,-10 420.5,-10"/>
<text text-anchor="start" x="444.13" y="-15.4" font-family="Times-12" font-size="14.00"> &#160;Declarations</text>
<polygon fill="#8dd3c7" stroke="transparent" points="533.5,-10 533.5,-30 553.5,-30 553.5,-10 533.5,-10"/>
<text text-anchor="start" x="557.23" y="-15.4" font-family="Times-12" font-size="14.00"> &#160;Module</text>
<polygon fill="#80b1d3" stroke="transparent" points="619.5,-10 619.5,-30 639.5,-30 639.5,-10 619.5,-10"/>
<text text-anchor="start" x="643.28" y="-15.4" font-family="Times-12" font-size="14.00"> &#160;Bootstrap</text>
<polygon fill="#fdb462" stroke="transparent" points="716.5,-10 716.5,-30 736.5,-30 736.5,-10 716.5,-10"/>
<text text-anchor="start" x="740.17" y="-15.4" font-family="Times-12" font-size="14.00"> &#160;Providers</text>
<polygon fill="#fb8072" stroke="transparent" points="812.5,-10 812.5,-30 832.5,-30 832.5,-10 812.5,-10"/>
<text text-anchor="start" x="836.23" y="-15.4" font-family="Times-12" font-size="14.00"> &#160;Exports</text>
<g id="clust1" class="cluster">
<title>cluster_AppModule</title>
<polygon fill="none" stroke="black" stroke-dasharray="1,5" points="683,-146 683,-336 1013,-336 1013,-146 683,-146"/>
</g>
<g id="clust3" class="cluster">
<title>cluster_AppModule_imports</title>
<polygon fill="none" stroke="black" points="691,-154 691,-271 973,-271 973,-154 691,-154"/>
</g>
<g id="clust7" class="cluster">
<title>cluster_CoreModule</title>
<polygon fill="none" stroke="black" stroke-dasharray="1,5" points="1149,-70 1149,-138 1301,-138 1301,-70 1149,-70"/>
</g>
<g id="clust12" class="cluster">
<title>cluster_CoreModule_providers</title>
<polygon fill="none" stroke="black" points="1157,-78 1157,-130 1293,-130 1293,-78 1157,-78"/>
</g>
<g id="clust25" class="cluster">
<title>cluster_ModulesModule</title>
<polygon fill="none" stroke="black" stroke-dasharray="1,5" points="8,-70 8,-138 1141,-138 1141,-70 8,-70"/>
</g>
<g id="clust28" class="cluster">
<title>cluster_ModulesModule_exports</title>
<polygon fill="none" stroke="black" points="792,-78 792,-130 1133,-130 1133,-78 792,-78"/>
</g>
<g id="clust30" class="cluster">
<title>cluster_ModulesModule_providers</title>
<polygon fill="none" stroke="black" points="16,-78 16,-130 784,-130 784,-78 16,-78"/>
</g>
<!-- CoreModule -->
<g id="node1" class="node">
<title>CoreModule</title>
<polygon fill="#8dd3c7" stroke="black" points="965.26,-198 962.26,-202 941.26,-202 938.26,-198 878.74,-198 878.74,-162 965.26,-162 965.26,-198"/>
<text text-anchor="middle" x="922" y="-175.8" font-family="Times,serif" font-size="14.00">CoreModule</text>
</g>
<!-- AppModule -->
<g id="node5" class="node">
<title>AppModule</title>
<polygon fill="#8dd3c7" stroke="black" points="970.66,-328 967.66,-332 946.66,-332 943.66,-328 887.34,-328 887.34,-292 970.66,-292 970.66,-328"/>
<text text-anchor="middle" x="929" y="-305.8" font-family="Times,serif" font-size="14.00">AppModule</text>
</g>
<!-- CoreModule&#45;&gt;AppModule -->
<g id="edge1" class="edge">
<title>CoreModule&#45;&gt;AppModule</title>
<path fill="none" stroke="black" d="M965.26,-186C980.64,-186 994.22,-186 994.22,-186 994.22,-186 994.22,-310 994.22,-310 994.22,-310 980.68,-310 980.68,-310"/>
<polygon fill="black" stroke="black" points="980.68,-306.5 970.68,-310 980.68,-313.5 980.68,-306.5"/>
</g>
<!-- GatewayModule -->
<g id="node2" class="node">
<title>GatewayModule</title>
<polygon fill="#8dd3c7" stroke="black" points="808.8,-263 805.8,-267 784.8,-267 781.8,-263 699.2,-263 699.2,-227 808.8,-227 808.8,-263"/>
<text text-anchor="middle" x="754" y="-240.8" font-family="Times,serif" font-size="14.00">GatewayModule</text>
</g>
<!-- GatewayModule&#45;&gt;AppModule -->
<g id="edge2" class="edge">
<title>GatewayModule&#45;&gt;AppModule</title>
<path fill="none" stroke="black" d="M754,-263.28C754,-284.32 754,-316 754,-316 754,-316 877.08,-316 877.08,-316"/>
<polygon fill="black" stroke="black" points="877.08,-319.5 887.08,-316 877.08,-312.5 877.08,-319.5"/>
</g>
<!-- MicroservicesModule -->
<g id="node3" class="node">
<title>MicroservicesModule</title>
<polygon fill="#8dd3c7" stroke="black" points="965.34,-263 962.34,-267 941.34,-267 938.34,-263 826.66,-263 826.66,-227 965.34,-227 965.34,-263"/>
<text text-anchor="middle" x="896" y="-240.8" font-family="Times,serif" font-size="14.00">MicroservicesModule</text>
</g>
<!-- MicroservicesModule&#45;&gt;AppModule -->
<g id="edge3" class="edge">
<title>MicroservicesModule&#45;&gt;AppModule</title>
<path fill="none" stroke="black" d="M926.3,-263.11C926.3,-263.11 926.3,-281.99 926.3,-281.99"/>
<polygon fill="black" stroke="black" points="922.8,-281.99 926.3,-291.99 929.8,-281.99 922.8,-281.99"/>
</g>
<!-- ModulesModule -->
<g id="node4" class="node">
<title>ModulesModule</title>
<polygon fill="#8dd3c7" stroke="black" points="834.05,-198 831.05,-202 810.05,-202 807.05,-198 725.95,-198 725.95,-162 834.05,-162 834.05,-198"/>
<text text-anchor="middle" x="780" y="-175.8" font-family="Times,serif" font-size="14.00">ModulesModule</text>
</g>
<!-- ModulesModule&#45;&gt;GatewayModule -->
<g id="edge6" class="edge">
<title>ModulesModule&#45;&gt;GatewayModule</title>
<path fill="none" stroke="black" d="M767.19,-198.11C767.19,-198.11 767.19,-216.99 767.19,-216.99"/>
<polygon fill="black" stroke="black" points="763.69,-216.99 767.19,-226.99 770.69,-216.99 763.69,-216.99"/>
</g>
<!-- ModulesModule&#45;&gt;MicroservicesModule -->
<g id="edge7" class="edge">
<title>ModulesModule&#45;&gt;MicroservicesModule</title>
<path fill="none" stroke="black" d="M830.42,-198.11C830.42,-198.11 830.42,-216.99 830.42,-216.99"/>
<polygon fill="black" stroke="black" points="826.93,-216.99 830.42,-226.99 833.93,-216.99 826.93,-216.99"/>
</g>
<!-- ModulesModule&#45;&gt;AppModule -->
<g id="edge4" class="edge">
<title>ModulesModule&#45;&gt;AppModule</title>
<path fill="none" stroke="black" d="M817.61,-198.03C817.61,-232.42 817.61,-304 817.61,-304 817.61,-304 877.21,-304 877.21,-304"/>
<polygon fill="black" stroke="black" points="877.21,-307.5 887.21,-304 877.21,-300.5 877.21,-307.5"/>
</g>
<!-- AuthService  -->
<g id="node7" class="node">
<title>AuthService </title>
<polygon fill="#fb8072" stroke="black" points="1124.98,-122 1035.02,-122 1035.02,-86 1124.98,-86 1124.98,-122"/>
<text text-anchor="middle" x="1080" y="-99.8" font-family="Times,serif" font-size="14.00">AuthService </text>
</g>
<!-- ModulesModule&#45;&gt;AuthService  -->
<g id="edge8" class="edge">
<title>ModulesModule&#45;&gt;AuthService </title>
<path fill="none" stroke="black" stroke-dasharray="5,2" d="M827.43,-161.89C827.43,-152.1 827.43,-142 827.43,-142 827.43,-142 1080,-142 1080,-142 1080,-142 1080,-132.11 1080,-132.11"/>
<polygon fill="black" stroke="black" points="1083.5,-132.11 1080,-122.11 1076.5,-132.11 1083.5,-132.11"/>
</g>
<!-- FirestoreService  -->
<g id="node8" class="node">
<title>FirestoreService </title>
<polygon fill="#fb8072" stroke="black" points="1017.74,-122 906.26,-122 906.26,-86 1017.74,-86 1017.74,-122"/>
<text text-anchor="middle" x="962" y="-99.8" font-family="Times,serif" font-size="14.00">FirestoreService </text>
</g>
<!-- ModulesModule&#45;&gt;FirestoreService  -->
<g id="edge9" class="edge">
<title>ModulesModule&#45;&gt;FirestoreService </title>
<path fill="none" stroke="black" stroke-dasharray="5,2" d="M820.58,-161.85C820.58,-148.26 820.58,-132 820.58,-132 820.58,-132 935.88,-132 935.88,-132 935.88,-132 935.88,-131.02 935.88,-131.02"/>
<polygon fill="black" stroke="black" points="939.38,-132.21 935.88,-122.21 932.38,-132.21 939.38,-132.21"/>
</g>
<!-- UserService  -->
<g id="node9" class="node">
<title>UserService </title>
<polygon fill="#fb8072" stroke="black" points="887.9,-122 800.1,-122 800.1,-86 887.9,-86 887.9,-122"/>
<text text-anchor="middle" x="844" y="-99.8" font-family="Times,serif" font-size="14.00">UserService </text>
</g>
<!-- ModulesModule&#45;&gt;UserService  -->
<g id="edge10" class="edge">
<title>ModulesModule&#45;&gt;UserService </title>
<path fill="none" stroke="black" stroke-dasharray="5,2" d="M806.89,-161.99C806.89,-161.99 806.89,-132.15 806.89,-132.15"/>
<polygon fill="black" stroke="black" points="810.39,-132.15 806.89,-122.15 803.39,-132.15 810.39,-132.15"/>
</g>
<!-- HashService -->
<g id="node6" class="node">
<title>HashService</title>
<ellipse fill="#fdb462" stroke="black" cx="1225" cy="-104" rx="59.67" ry="18"/>
<text text-anchor="middle" x="1225" y="-99.8" font-family="Times,serif" font-size="14.00">HashService</text>
</g>
<!-- HashService&#45;&gt;CoreModule -->
<g id="edge5" class="edge">
<title>HashService&#45;&gt;CoreModule</title>
<path fill="none" stroke="black" d="M1244.94,-121.3C1244.94,-142.03 1244.94,-174 1244.94,-174 1244.94,-174 975.55,-174 975.55,-174"/>
<polygon fill="black" stroke="black" points="975.55,-170.5 965.55,-174 975.55,-177.5 975.55,-170.5"/>
</g>
<!-- HashService&#45;&gt;ModulesModule -->
<g id="edge13" class="edge">
<title>HashService&#45;&gt;ModulesModule</title>
<path fill="none" stroke="black" d="M1205.06,-121.06C1205.06,-134.85 1205.06,-152 1205.06,-152 1205.06,-152 813.74,-152 813.74,-152 813.74,-152 813.74,-152.98 813.74,-152.98"/>
<polygon fill="black" stroke="black" points="810.24,-151.79 813.74,-161.79 817.24,-151.79 810.24,-151.79"/>
</g>
<!-- AuthService -->
<g id="node10" class="node">
<title>AuthService</title>
<ellipse fill="#fdb462" stroke="black" cx="717" cy="-104" rx="59.11" ry="18"/>
<text text-anchor="middle" x="717" y="-99.8" font-family="Times,serif" font-size="14.00">AuthService</text>
</g>
<!-- AuthService&#45;&gt;ModulesModule -->
<g id="edge11" class="edge">
<title>AuthService&#45;&gt;ModulesModule</title>
<path fill="none" stroke="black" d="M751.02,-119.02C751.02,-119.02 751.02,-151.8 751.02,-151.8"/>
<polygon fill="black" stroke="black" points="747.52,-151.8 751.02,-161.8 754.52,-151.8 747.52,-151.8"/>
</g>
<!-- FirestoreService -->
<g id="node11" class="node">
<title>FirestoreService</title>
<ellipse fill="#fdb462" stroke="black" cx="565" cy="-104" rx="74.13" ry="18"/>
<text text-anchor="middle" x="565" y="-99.8" font-family="Times,serif" font-size="14.00">FirestoreService</text>
</g>
<!-- FirestoreService&#45;&gt;ModulesModule -->
<g id="edge12" class="edge">
<title>FirestoreService&#45;&gt;ModulesModule</title>
<path fill="none" stroke="black" d="M565,-122.03C565,-141.58 565,-170 565,-170 565,-170 715.75,-170 715.75,-170"/>
<polygon fill="black" stroke="black" points="715.75,-173.5 725.75,-170 715.75,-166.5 715.75,-173.5"/>
</g>
<!-- MongooseService -->
<g id="node12" class="node">
<title>MongooseService</title>
<ellipse fill="#fdb462" stroke="black" cx="392" cy="-104" rx="80.52" ry="18"/>
<text text-anchor="middle" x="392" y="-99.8" font-family="Times,serif" font-size="14.00">MongooseService</text>
</g>
<!-- MongooseService&#45;&gt;ModulesModule -->
<g id="edge14" class="edge">
<title>MongooseService&#45;&gt;ModulesModule</title>
<path fill="none" stroke="black" d="M392,-122.04C392,-143.66 392,-177 392,-177 392,-177 715.64,-177 715.64,-177"/>
<polygon fill="black" stroke="black" points="715.64,-180.5 725.64,-177 715.64,-173.5 715.64,-180.5"/>
</g>
<!-- ProjectService -->
<g id="node13" class="node">
<title>ProjectService</title>
<ellipse fill="#fdb462" stroke="black" cx="226" cy="-104" rx="67.19" ry="18"/>
<text text-anchor="middle" x="226" y="-99.8" font-family="Times,serif" font-size="14.00">ProjectService</text>
</g>
<!-- ProjectService&#45;&gt;ModulesModule -->
<g id="edge15" class="edge">
<title>ProjectService&#45;&gt;ModulesModule</title>
<path fill="none" stroke="black" d="M226,-122.15C226,-145.76 226,-184 226,-184 226,-184 715.87,-184 715.87,-184"/>
<polygon fill="black" stroke="black" points="715.87,-187.5 725.87,-184 715.87,-180.5 715.87,-187.5"/>
</g>
<!-- UserService -->
<g id="node14" class="node">
<title>UserService</title>
<ellipse fill="#fdb462" stroke="black" cx="82" cy="-104" rx="58.44" ry="18"/>
<text text-anchor="middle" x="82" y="-99.8" font-family="Times,serif" font-size="14.00">UserService</text>
</g>
<!-- UserService&#45;&gt;ModulesModule -->
<g id="edge16" class="edge">
<title>UserService&#45;&gt;ModulesModule</title>
<path fill="none" stroke="black" d="M82,-122.03C82,-147.51 82,-191 82,-191 82,-191 715.81,-191 715.81,-191"/>
<polygon fill="black" stroke="black" points="715.81,-194.5 725.81,-191 715.81,-187.5 715.81,-194.5"/>
</g>
</g>
</svg>
