<?xml version="1.0" encoding="UTF-8" standalone="no"?>
<!DOCTYPE svg PUBLIC "-//W3C//DTD SVG 1.1//EN"
 "http://www.w3.org/Graphics/SVG/1.1/DTD/svg11.dtd">
<!-- Generated by graphviz version 2.47.0 (20210316.0004)
 -->
<!-- Title: dependencies Pages: 1 -->
<svg width="553pt" height="211pt"
 viewBox="0.00 0.00 553.00 211.00" xmlns="http://www.w3.org/2000/svg" xmlns:xlink="http://www.w3.org/1999/xlink">
<g id="graph0" class="graph" transform="scale(1 1) rotate(0) translate(4 207)">
<title>dependencies</title>
<polygon fill="white" stroke="transparent" points="-4,4 -4,-207 549,-207 549,4 -4,4"/>
<text text-anchor="start" x="251.51" y="-42.4" font-family="Times-12" font-weight="bold" font-size="14.00">Legend</text>
<polygon fill="#ffffb3" stroke="transparent" points="38.5,-10 38.5,-30 58.5,-30 58.5,-10 38.5,-10"/>
<text text-anchor="start" x="62.13" y="-15.4" font-family="Times-12" font-size="14.00"> &#160;Declarations</text>
<polygon fill="#8dd3c7" stroke="transparent" points="151.5,-10 151.5,-30 171.5,-30 171.5,-10 151.5,-10"/>
<text text-anchor="start" x="175.23" y="-15.4" font-family="Times-12" font-size="14.00"> &#160;Module</text>
<polygon fill="#80b1d3" stroke="transparent" points="237.5,-10 237.5,-30 257.5,-30 257.5,-10 237.5,-10"/>
<text text-anchor="start" x="261.28" y="-15.4" font-family="Times-12" font-size="14.00"> &#160;Bootstrap</text>
<polygon fill="#fdb462" stroke="transparent" points="334.5,-10 334.5,-30 354.5,-30 354.5,-10 334.5,-10"/>
<text text-anchor="start" x="358.17" y="-15.4" font-family="Times-12" font-size="14.00"> &#160;Providers</text>
<polygon fill="#fb8072" stroke="transparent" points="430.5,-10 430.5,-30 450.5,-30 450.5,-10 430.5,-10"/>
<text text-anchor="start" x="454.23" y="-15.4" font-family="Times-12" font-size="14.00"> &#160;Exports</text>
<g id="clust1" class="cluster">
<title>cluster_AppModule</title>
<polygon fill="none" stroke="black" stroke-dasharray="1,5" points="8,-70 8,-195 537,-195 537,-70 8,-70"/>
</g>
<g id="clust3" class="cluster">
<title>cluster_AppModule_imports</title>
<polygon fill="none" stroke="black" points="16,-78 16,-130 529,-130 529,-78 16,-78"/>
</g>
<!-- CoreModule -->
<g id="node1" class="node">
<title>CoreModule</title>
<polygon fill="#8dd3c7" stroke="black" points="521.26,-122 518.26,-126 497.26,-126 494.26,-122 434.74,-122 434.74,-86 521.26,-86 521.26,-122"/>
<text text-anchor="middle" x="478" y="-99.8" font-family="Times,serif" font-size="14.00">CoreModule</text>
</g>
<!-- AppModule -->
<g id="node5" class="node">
<title>AppModule</title>
<polygon fill="#8dd3c7" stroke="black" points="332.66,-187 329.66,-191 308.66,-191 305.66,-187 249.34,-187 249.34,-151 332.66,-151 332.66,-187"/>
<text text-anchor="middle" x="291" y="-164.8" font-family="Times,serif" font-size="14.00">AppModule</text>
</g>
<!-- CoreModule&#45;&gt;AppModule -->
<g id="edge1" class="edge">
<title>CoreModule&#45;&gt;AppModule</title>
<path fill="none" stroke="black" d="M478,-122.11C478,-141.34 478,-169 478,-169 478,-169 342.97,-169 342.97,-169"/>
<polygon fill="black" stroke="black" points="342.97,-165.5 332.97,-169 342.97,-172.5 342.97,-165.5"/>
</g>
<!-- GatewayModule -->
<g id="node2" class="node">
<title>GatewayModule</title>
<polygon fill="#8dd3c7" stroke="black" points="416.8,-122 413.8,-126 392.8,-126 389.8,-122 307.2,-122 307.2,-86 416.8,-86 416.8,-122"/>
<text text-anchor="middle" x="362" y="-99.8" font-family="Times,serif" font-size="14.00">GatewayModule</text>
</g>
<!-- GatewayModule&#45;&gt;AppModule -->
<g id="edge2" class="edge">
<title>GatewayModule&#45;&gt;AppModule</title>
<path fill="none" stroke="black" d="M320.09,-122.11C320.09,-122.11 320.09,-140.99 320.09,-140.99"/>
<polygon fill="black" stroke="black" points="316.59,-140.99 320.09,-150.99 323.59,-140.99 316.59,-140.99"/>
</g>
<!-- MicroservicesModule -->
<g id="node3" class="node">
<title>MicroservicesModule</title>
<polygon fill="#8dd3c7" stroke="black" points="289.34,-122 286.34,-126 265.34,-126 262.34,-122 150.66,-122 150.66,-86 289.34,-86 289.34,-122"/>
<text text-anchor="middle" x="220" y="-99.8" font-family="Times,serif" font-size="14.00">MicroservicesModule</text>
</g>
<!-- MicroservicesModule&#45;&gt;AppModule -->
<g id="edge3" class="edge">
<title>MicroservicesModule&#45;&gt;AppModule</title>
<path fill="none" stroke="black" d="M269.3,-122.11C269.3,-122.11 269.3,-140.99 269.3,-140.99"/>
<polygon fill="black" stroke="black" points="265.8,-140.99 269.3,-150.99 272.8,-140.99 265.8,-140.99"/>
</g>
<!-- ModulesModule -->
<g id="node4" class="node">
<title>ModulesModule</title>
<polygon fill="#8dd3c7" stroke="black" points="132.05,-122 129.05,-126 108.05,-126 105.05,-122 23.95,-122 23.95,-86 132.05,-86 132.05,-122"/>
<text text-anchor="middle" x="78" y="-99.8" font-family="Times,serif" font-size="14.00">ModulesModule</text>
</g>
<!-- ModulesModule&#45;&gt;AppModule -->
<g id="edge4" class="edge">
<title>ModulesModule&#45;&gt;AppModule</title>
<path fill="none" stroke="black" d="M78,-122.11C78,-141.34 78,-169 78,-169 78,-169 239.17,-169 239.17,-169"/>
<polygon fill="black" stroke="black" points="239.17,-172.5 249.17,-169 239.17,-165.5 239.17,-172.5"/>
</g>
</g>
</svg>
