<?xml version="1.0" encoding="UTF-8" standalone="no"?>
<!DOCTYPE svg PUBLIC "-//W3C//DTD SVG 1.1//EN"
 "http://www.w3.org/Graphics/SVG/1.1/DTD/svg11.dtd">
<!-- Generated by graphviz version 2.47.0 (20210316.0004)
 -->
<!-- Title: dependencies Pages: 1 -->
<svg width="946pt" height="284pt"
 viewBox="0.00 0.00 946.00 284.00" xmlns="http://www.w3.org/2000/svg" xmlns:xlink="http://www.w3.org/1999/xlink">
<g id="graph0" class="graph" transform="scale(1 1) rotate(0) translate(4 280)">
<title>dependencies</title>
<polygon fill="white" stroke="transparent" points="-4,4 -4,-280 942,-280 942,4 -4,4"/>
<text text-anchor="start" x="448.01" y="-42.4" font-family="Times-12" font-weight="bold" font-size="14.00">Legend</text>
<polygon fill="#ffffb3" stroke="transparent" points="235,-10 235,-30 255,-30 255,-10 235,-10"/>
<text text-anchor="start" x="258.63" y="-15.4" font-family="Times-12" font-size="14.00"> &#160;Declarations</text>
<polygon fill="#8dd3c7" stroke="transparent" points="348,-10 348,-30 368,-30 368,-10 348,-10"/>
<text text-anchor="start" x="371.73" y="-15.4" font-family="Times-12" font-size="14.00"> &#160;Module</text>
<polygon fill="#80b1d3" stroke="transparent" points="434,-10 434,-30 454,-30 454,-10 434,-10"/>
<text text-anchor="start" x="457.78" y="-15.4" font-family="Times-12" font-size="14.00"> &#160;Bootstrap</text>
<polygon fill="#fdb462" stroke="transparent" points="531,-10 531,-30 551,-30 551,-10 531,-10"/>
<text text-anchor="start" x="554.67" y="-15.4" font-family="Times-12" font-size="14.00"> &#160;Providers</text>
<polygon fill="#fb8072" stroke="transparent" points="627,-10 627,-30 647,-30 647,-10 627,-10"/>
<text text-anchor="start" x="650.73" y="-15.4" font-family="Times-12" font-size="14.00"> &#160;Exports</text>
<g id="clust1" class="cluster">
<title>cluster_ModulesModule</title>
<polygon fill="none" stroke="black" stroke-dasharray="1,5" points="8,-70 8,-268 930,-268 930,-70 8,-70"/>
</g>
<g id="clust6" class="cluster">
<title>cluster_ModulesModule_providers</title>
<polygon fill="none" stroke="black" points="16,-78 16,-130 922,-130 922,-78 16,-78"/>
</g>
<g id="clust4" class="cluster">
<title>cluster_ModulesModule_exports</title>
<polygon fill="none" stroke="black" points="301,-208 301,-260 642,-260 642,-208 301,-208"/>
</g>
<!-- AuthService  -->
<g id="node1" class="node">
<title>AuthService </title>
<polygon fill="#fb8072" stroke="black" points="633.98,-252 544.02,-252 544.02,-216 633.98,-216 633.98,-252"/>
<text text-anchor="middle" x="589" y="-229.8" font-family="Times,serif" font-size="14.00">AuthService </text>
</g>
<!-- FirestoreService  -->
<g id="node2" class="node">
<title>FirestoreService </title>
<polygon fill="#fb8072" stroke="black" points="526.74,-252 415.26,-252 415.26,-216 526.74,-216 526.74,-252"/>
<text text-anchor="middle" x="471" y="-229.8" font-family="Times,serif" font-size="14.00">FirestoreService </text>
</g>
<!-- UserService  -->
<g id="node3" class="node">
<title>UserService </title>
<polygon fill="#fb8072" stroke="black" points="396.9,-252 309.1,-252 309.1,-216 396.9,-216 396.9,-252"/>
<text text-anchor="middle" x="353" y="-229.8" font-family="Times,serif" font-size="14.00">UserService </text>
</g>
<!-- ModulesModule -->
<g id="node4" class="node">
<title>ModulesModule</title>
<polygon fill="#8dd3c7" stroke="black" points="525.05,-187 522.05,-191 501.05,-191 498.05,-187 416.95,-187 416.95,-151 525.05,-151 525.05,-187"/>
<text text-anchor="middle" x="471" y="-164.8" font-family="Times,serif" font-size="14.00">ModulesModule</text>
</g>
<!-- ModulesModule&#45;&gt;AuthService  -->
<g id="edge1" class="edge">
<title>ModulesModule&#45;&gt;AuthService </title>
<path fill="none" stroke="black" stroke-dasharray="5,2" d="M525.21,-178C551.53,-178 577.55,-178 577.55,-178 577.55,-178 577.55,-205.97 577.55,-205.97"/>
<polygon fill="black" stroke="black" points="574.05,-205.97 577.55,-215.97 581.05,-205.97 574.05,-205.97"/>
</g>
<!-- ModulesModule&#45;&gt;FirestoreService  -->
<g id="edge2" class="edge">
<title>ModulesModule&#45;&gt;FirestoreService </title>
<path fill="none" stroke="black" stroke-dasharray="5,2" d="M471,-187.11C471,-187.11 471,-205.99 471,-205.99"/>
<polygon fill="black" stroke="black" points="467.5,-205.99 471,-215.99 474.5,-205.99 467.5,-205.99"/>
</g>
<!-- ModulesModule&#45;&gt;UserService  -->
<g id="edge3" class="edge">
<title>ModulesModule&#45;&gt;UserService </title>
<path fill="none" stroke="black" stroke-dasharray="5,2" d="M416.65,-178C386.13,-178 354.1,-178 354.1,-178 354.1,-178 354.1,-205.97 354.1,-205.97"/>
<polygon fill="black" stroke="black" points="350.6,-205.97 354.1,-215.97 357.6,-205.97 350.6,-205.97"/>
</g>
<!-- AuthService -->
<g id="node5" class="node">
<title>AuthService</title>
<ellipse fill="#fdb462" stroke="black" cx="855" cy="-104" rx="59.11" ry="18"/>
<text text-anchor="middle" x="855" y="-99.8" font-family="Times,serif" font-size="14.00">AuthService</text>
</g>
<!-- AuthService&#45;&gt;ModulesModule -->
<g id="edge4" class="edge">
<title>AuthService&#45;&gt;ModulesModule</title>
<path fill="none" stroke="black" d="M855,-122.11C855,-141.34 855,-169 855,-169 855,-169 535.2,-169 535.2,-169"/>
<polygon fill="black" stroke="black" points="535.2,-165.5 525.2,-169 535.2,-172.5 535.2,-165.5"/>
</g>
<!-- FirestoreService -->
<g id="node6" class="node">
<title>FirestoreService</title>
<ellipse fill="#fdb462" stroke="black" cx="703" cy="-104" rx="74.13" ry="18"/>
<text text-anchor="middle" x="703" y="-99.8" font-family="Times,serif" font-size="14.00">FirestoreService</text>
</g>
<!-- FirestoreService&#45;&gt;ModulesModule -->
<g id="edge5" class="edge">
<title>FirestoreService&#45;&gt;ModulesModule</title>
<path fill="none" stroke="black" d="M705.53,-122.03C705.53,-138.4 705.53,-160 705.53,-160 705.53,-160 535.1,-160 535.1,-160"/>
<polygon fill="black" stroke="black" points="535.1,-156.5 525.1,-160 535.1,-163.5 535.1,-156.5"/>
</g>
<!-- HashService -->
<g id="node7" class="node">
<title>HashService</title>
<ellipse fill="#fdb462" stroke="black" cx="551" cy="-104" rx="59.67" ry="18"/>
<text text-anchor="middle" x="551" y="-99.8" font-family="Times,serif" font-size="14.00">HashService</text>
</g>
<!-- HashService&#45;&gt;ModulesModule -->
<g id="edge6" class="edge">
<title>HashService&#45;&gt;ModulesModule</title>
<path fill="none" stroke="black" d="M508.22,-116.84C508.22,-116.84 508.22,-140.52 508.22,-140.52"/>
<polygon fill="black" stroke="black" points="504.72,-140.52 508.22,-150.52 511.72,-140.52 504.72,-140.52"/>
</g>
<!-- MongooseService -->
<g id="node8" class="node">
<title>MongooseService</title>
<ellipse fill="#fdb462" stroke="black" cx="392" cy="-104" rx="80.52" ry="18"/>
<text text-anchor="middle" x="392" y="-99.8" font-family="Times,serif" font-size="14.00">MongooseService</text>
</g>
<!-- MongooseService&#45;&gt;ModulesModule -->
<g id="edge7" class="edge">
<title>MongooseService&#45;&gt;ModulesModule</title>
<path fill="none" stroke="black" d="M444.74,-117.78C444.74,-117.78 444.74,-140.55 444.74,-140.55"/>
<polygon fill="black" stroke="black" points="441.24,-140.55 444.74,-150.55 448.24,-140.55 441.24,-140.55"/>
</g>
<!-- ProjectService -->
<g id="node9" class="node">
<title>ProjectService</title>
<ellipse fill="#fdb462" stroke="black" cx="226" cy="-104" rx="67.19" ry="18"/>
<text text-anchor="middle" x="226" y="-99.8" font-family="Times,serif" font-size="14.00">ProjectService</text>
</g>
<!-- ProjectService&#45;&gt;ModulesModule -->
<g id="edge8" class="edge">
<title>ProjectService&#45;&gt;ModulesModule</title>
<path fill="none" stroke="black" d="M226,-122.03C226,-138.4 226,-160 226,-160 226,-160 406.93,-160 406.93,-160"/>
<polygon fill="black" stroke="black" points="406.93,-163.5 416.93,-160 406.93,-156.5 406.93,-163.5"/>
</g>
<!-- UserService -->
<g id="node10" class="node">
<title>UserService</title>
<ellipse fill="#fdb462" stroke="black" cx="82" cy="-104" rx="58.44" ry="18"/>
<text text-anchor="middle" x="82" y="-99.8" font-family="Times,serif" font-size="14.00">UserService</text>
</g>
<!-- UserService&#45;&gt;ModulesModule -->
<g id="edge9" class="edge">
<title>UserService&#45;&gt;ModulesModule</title>
<path fill="none" stroke="black" d="M82,-122.11C82,-141.34 82,-169 82,-169 82,-169 406.91,-169 406.91,-169"/>
<polygon fill="black" stroke="black" points="406.91,-172.5 416.91,-169 406.91,-165.5 406.91,-172.5"/>
</g>
</g>
</svg>
