<?xml version="1.0" encoding="UTF-8" standalone="no"?>
<!DOCTYPE svg PUBLIC "-//W3C//DTD SVG 1.1//EN"
 "http://www.w3.org/Graphics/SVG/1.1/DTD/svg11.dtd">
<!-- Generated by graphviz version 2.47.0 (20210316.0004)
 -->
<!-- Title: dependencies Pages: 1 -->
<svg width="745pt" height="284pt"
     viewBox="0.00 0.00 745.00 284.00" xmlns="http://www.w3.org/2000/svg" xmlns:xlink="http://www.w3.org/1999/xlink">
<g id="graph0" class="graph" transform="scale(1 1) rotate(0) translate(4 280)">
<title>dependencies</title>
    <polygon fill="white" stroke="transparent" points="-4,4 -4,-280 741,-280 741,4 -4,4"/>
    <text text-anchor="start" x="347.51" y="-42.4" font-family="Times-12" font-weight="bold" font-size="14.00">Legend
    </text>
    <polygon fill="#ffffb3" stroke="transparent" points="134.5,-10 134.5,-30 154.5,-30 154.5,-10 134.5,-10"/>
    <text text-anchor="start" x="158.13" y="-15.4" font-family="Times-12" font-size="14.00">&#160;Declarations</text>
    <polygon fill="#8dd3c7" stroke="transparent" points="247.5,-10 247.5,-30 267.5,-30 267.5,-10 247.5,-10"/>
    <text text-anchor="start" x="271.23" y="-15.4" font-family="Times-12" font-size="14.00">&#160;Module</text>
    <polygon fill="#80b1d3" stroke="transparent" points="333.5,-10 333.5,-30 353.5,-30 353.5,-10 333.5,-10"/>
    <text text-anchor="start" x="357.28" y="-15.4" font-family="Times-12" font-size="14.00">&#160;Bootstrap</text>
    <polygon fill="#fdb462" stroke="transparent" points="430.5,-10 430.5,-30 450.5,-30 450.5,-10 430.5,-10"/>
    <text text-anchor="start" x="454.17" y="-15.4" font-family="Times-12" font-size="14.00">&#160;Providers</text>
    <polygon fill="#fb8072" stroke="transparent" points="526.5,-10 526.5,-30 546.5,-30 546.5,-10 526.5,-10"/>
    <text text-anchor="start" x="550.23" y="-15.4" font-family="Times-12" font-size="14.00">&#160;Exports</text>
<g id="clust1" class="cluster">
<title>cluster_ModulesModule</title>
    <polygon fill="none" stroke="black" stroke-dasharray="1,5" points="8,-70 8,-268 729,-268 729,-70 8,-70"/>
</g>
    <g id="clust3" class="cluster">
        <title>cluster_ModulesModule_imports</title>
        <polygon fill="none" stroke="black" points="16,-78 16,-130 721,-130 721,-78 16,-78"/>
</g>
<g id="clust4" class="cluster">
<title>cluster_ModulesModule_exports</title>
    <polygon fill="none" stroke="black" points="131,-208 131,-260 598,-260 598,-208 131,-208"/>
</g>
    <!-- AuthModule -->
<g id="node1" class="node">
    <title>AuthModule</title>
    <polygon fill="#8dd3c7" stroke="black"
             points="712.55,-122 709.55,-126 688.55,-126 685.55,-122 625.45,-122 625.45,-86 712.55,-86 712.55,-122"/>
    <text text-anchor="middle" x="669" y="-99.8" font-family="Times,serif" font-size="14.00">AuthModule</text>
</g>
<!-- ModulesModule -->
    <g id="node7" class="node">
<title>ModulesModule</title>
        <polygon fill="#8dd3c7" stroke="black"
                 points="415.05,-187 412.05,-191 391.05,-191 388.05,-187 306.95,-187 306.95,-151 415.05,-151 415.05,-187"/>
        <text text-anchor="middle" x="361" y="-164.8" font-family="Times,serif" font-size="14.00">ModulesModule</text>
</g>
    <!-- AuthModule&#45;&gt;ModulesModule -->
<g id="edge1" class="edge">
    <title>AuthModule&#45;&gt;ModulesModule</title>
    <path fill="none" stroke="black" d="M669,-122.11C669,-141.34 669,-169 669,-169 669,-169 425.36,-169 425.36,-169"/>
    <polygon fill="black" stroke="black" points="425.36,-165.5 415.36,-169 425.36,-172.5 425.36,-165.5"/>
</g>
    <!-- DatabaseModule -->
    <g id="node2" class="node">
        <title>DatabaseModule</title>
        <polygon fill="#8dd3c7" stroke="black"
                 points="607.35,-122 604.35,-126 583.35,-126 580.35,-122 496.65,-122 496.65,-86 607.35,-86 607.35,-122"/>
        <text text-anchor="middle" x="552" y="-99.8" font-family="Times,serif" font-size="14.00">DatabaseModule</text>
</g>
    <!-- DatabaseModule&#45;&gt;ModulesModule -->
<g id="edge2" class="edge">
    <title>DatabaseModule&#45;&gt;ModulesModule</title>
    <path fill="none" stroke="black"
          d="M528.83,-122.03C528.83,-138.4 528.83,-160 528.83,-160 528.83,-160 425.49,-160 425.49,-160"/>
    <polygon fill="black" stroke="black" points="425.49,-156.5 415.49,-160 425.49,-163.5 425.49,-156.5"/>
</g>
    <!-- FirestoreModule -->
    <g id="node3" class="node">
        <title>FirestoreModule</title>
        <polygon fill="#8dd3c7" stroke="black"
                 points="478.81,-122 475.81,-126 454.81,-126 451.81,-122 369.19,-122 369.19,-86 478.81,-86 478.81,-122"/>
        <text text-anchor="middle" x="424" y="-99.8" font-family="Times,serif" font-size="14.00">FirestoreModule</text>
</g>
    <!-- FirestoreModule&#45;&gt;ModulesModule -->
<g id="edge3" class="edge">
    <title>FirestoreModule&#45;&gt;ModulesModule</title>
    <path fill="none" stroke="black" d="M392.31,-122.11C392.31,-122.11 392.31,-140.99 392.31,-140.99"/>
    <polygon fill="black" stroke="black" points="388.81,-140.99 392.31,-150.99 395.81,-140.99 388.81,-140.99"/>
</g>
    <!-- ProjectModule -->
    <g id="node4" class="node">
        <title>ProjectModule</title>
        <polygon fill="#8dd3c7" stroke="black"
                 points="351.7,-122 348.7,-126 327.7,-126 324.7,-122 252.3,-122 252.3,-86 351.7,-86 351.7,-122"/>
        <text text-anchor="middle" x="302" y="-99.8" font-family="Times,serif" font-size="14.00">ProjectModule</text>
</g>
    <!-- ProjectModule&#45;&gt;ModulesModule -->
<g id="edge4" class="edge">
    <title>ProjectModule&#45;&gt;ModulesModule</title>
    <path fill="none" stroke="black" d="M329.16,-122.11C329.16,-122.11 329.16,-140.99 329.16,-140.99"/>
    <polygon fill="black" stroke="black" points="325.66,-140.99 329.16,-150.99 332.66,-140.99 325.66,-140.99"/>
</g>
    <!-- UserModule -->
    <g id="node5" class="node">
        <title>UserModule</title>
        <polygon fill="#8dd3c7" stroke="black"
                 points="233.98,-122 230.98,-126 209.98,-126 206.98,-122 148.02,-122 148.02,-86 233.98,-86 233.98,-122"/>
        <text text-anchor="middle" x="191" y="-99.8" font-family="Times,serif" font-size="14.00">UserModule</text>
</g>
    <!-- UserModule&#45;&gt;ModulesModule -->
<g id="edge5" class="edge">
    <title>UserModule&#45;&gt;ModulesModule</title>
    <path fill="none" stroke="black"
          d="M201.83,-122.03C201.83,-138.4 201.83,-160 201.83,-160 201.83,-160 296.67,-160 296.67,-160"/>
    <polygon fill="black" stroke="black" points="296.67,-163.5 306.67,-160 296.67,-156.5 296.67,-163.5"/>
</g>
    <!-- WebsdkModule -->
    <g id="node6" class="node">
        <title>WebsdkModule</title>
        <polygon fill="#8dd3c7" stroke="black"
                 points="129.92,-122 126.92,-126 105.92,-126 102.92,-122 24.08,-122 24.08,-86 129.92,-86 129.92,-122"/>
        <text text-anchor="middle" x="77" y="-99.8" font-family="Times,serif" font-size="14.00">WebsdkModule</text>
</g>
    <!-- WebsdkModule&#45;&gt;ModulesModule -->
<g id="edge6" class="edge">
    <title>WebsdkModule&#45;&gt;ModulesModule</title>
    <path fill="none" stroke="black" d="M77,-122.11C77,-141.34 77,-169 77,-169 77,-169 296.91,-169 296.91,-169"/>
    <polygon fill="black" stroke="black" points="296.91,-172.5 306.91,-169 296.91,-165.5 296.91,-172.5"/>
</g>
    <!-- AuthModule  -->
<g id="node8" class="node">
    <title>AuthModule</title>
    <polygon fill="#fb8072" stroke="black" points="589.55,-252 498.45,-252 498.45,-216 589.55,-216 589.55,-252"/>
    <text text-anchor="middle" x="544" y="-229.8" font-family="Times,serif" font-size="14.00">AuthModule</text>
</g>
    <!-- ModulesModule&#45;&gt;AuthModule  -->
<g id="edge7" class="edge">
    <title>ModulesModule&#45;&gt;AuthModule</title>
    <path fill="none" stroke="black" stroke-dasharray="5,2"
          d="M415.15,-178C473.83,-178 559.17,-178 559.17,-178 559.17,-178 559.17,-205.97 559.17,-205.97"/>
    <polygon fill="black" stroke="black" points="555.67,-205.97 559.17,-215.97 562.67,-205.97 555.67,-205.97"/>
</g>
    <!-- FirestoreModule  -->
<g id="node9" class="node">
    <title>FirestoreModule</title>
    <polygon fill="#fb8072" stroke="black" points="480.31,-252 367.69,-252 367.69,-216 480.31,-216 480.31,-252"/>
    <text text-anchor="middle" x="424" y="-229.8" font-family="Times,serif" font-size="14.00">FirestoreModule</text>
</g>
    <!-- ModulesModule&#45;&gt;FirestoreModule  -->
<g id="edge8" class="edge">
    <title>ModulesModule&#45;&gt;FirestoreModule</title>
    <path fill="none" stroke="black" stroke-dasharray="5,2"
          d="M391.43,-187.11C391.43,-187.11 391.43,-205.99 391.43,-205.99"/>
    <polygon fill="black" stroke="black" points="387.93,-205.99 391.43,-215.99 394.93,-205.99 387.93,-205.99"/>
</g>
    <!-- ProjectModule  -->
<g id="node10" class="node">
    <title>ProjectModule</title>
    <polygon fill="#fb8072" stroke="black" points="349.2,-252 246.8,-252 246.8,-216 349.2,-216 349.2,-252"/>
    <text text-anchor="middle" x="298" y="-229.8" font-family="Times,serif" font-size="14.00">ProjectModule</text>
</g>
    <!-- ModulesModule&#45;&gt;ProjectModule  -->
<g id="edge9" class="edge">
    <title>ModulesModule&#45;&gt;ProjectModule</title>
    <path fill="none" stroke="black" stroke-dasharray="5,2"
          d="M328.04,-187.11C328.04,-187.11 328.04,-205.99 328.04,-205.99"/>
    <polygon fill="black" stroke="black" points="324.54,-205.99 328.04,-215.99 331.54,-205.99 324.54,-205.99"/>
</g>
    <!-- UserModule  -->
    <g id="node11" class="node">
        <title>UserModule</title>
        <polygon fill="#fb8072" stroke="black" points="228.98,-252 139.02,-252 139.02,-216 228.98,-216 228.98,-252"/>
        <text text-anchor="middle" x="184" y="-229.8" font-family="Times,serif" font-size="14.00">UserModule</text>
    </g>
    <!-- ModulesModule&#45;&gt;UserModule  -->
    <g id="edge10" class="edge">
        <title>ModulesModule&#45;&gt;UserModule</title>
        <path fill="none" stroke="black" stroke-dasharray="5,2"
              d="M306.93,-178C251.99,-178 174.92,-178 174.92,-178 174.92,-178 174.92,-205.97 174.92,-205.97"/>
        <polygon fill="black" stroke="black" points="171.42,-205.97 174.92,-215.97 178.42,-205.97 171.42,-205.97"/>
</g>
</g>
</svg>
